{
  "accessors": [
    {
      "bufferView": 2,
      "componentType": 5126,
      "count": 816,
      "max": [
        0.01903577335178852,
        0.01903577707707882,
        0.050666194409132004
      ],
      "min": [
        -0.01903577335178852,
        -0.01903574913740158,
        -0.05066618695855141
      ],
      "type": "VEC3"
    },
    {
      "bufferView": 2,
      "byteOffset": 9792,
      "componentType": 5126,
      "count": 816,
      "max": [
        1.0,
        1.0,
        1.0
      ],
      "min": [
        -1.0,
        -1.0,
        -1.0
      ],
      "type": "VEC3"
    },
    {
      "bufferView": 3,
      "componentType": 5126,
      "count": 816,
      "max": [
        1.0,
        1.0,
        0.9997299313545227,
        1.0
      ],
      "min": [
        -1.0,
        -1.0,
        -1.0,
        1.0
      ],
      "type": "VEC4"
    },
    {
      "bufferView": 1,
      "componentType": 5126,
      "count": 816,
      "max": [
        0.9399287104606628,
        0.9990000128746033
      ],
      "min": [
        0.5349394679069519,
        0.05701059103012085
      ],
      "type": "VEC2"
    },
    {
      "bufferView": 1,
      "byteOffset": 6528,
      "componentType": 5126,
      "count": 816,
      "max": [
        0.9399287104606628,
        0.9990000128746033
      ],
      "min": [
        0.5349394679069519,
        0.05701059103012085
      ],
      "type": "VEC2"
    },
    {
      "bufferView": 1,
      "byteOffset": 13056,
      "componentType": 5126,
      "count": 816,
      "max": [
        0.9399287104606628,
        0.9990000128746033
      ],
      "min": [
        0.5349394679069519,
        0.05701059103012085
      ],
      "type": "VEC2"
    },
    {
      "bufferView": 1,
      "byteOffset": 19584,
      "componentType": 5126,
      "count": 816,
      "max": [
        0.9399287104606628,
        0.9990000128746033
      ],
      "min": [
        0.5349394679069519,
        0.05701059103012085
      ],
      "type": "VEC2"
    },
    {
      "bufferView": 1,
      "byteOffset": 26112,
      "componentType": 5126,
      "count": 816,
      "max": [
        0.9399287104606628,
        0.9990000128746033
      ],
      "min": [
        0.5349394679069519,
        0.05701059103012085
      ],
      "type": "VEC2"
    },
    {
      "bufferView": 0,
      "componentType": 5125,
      "count": 2400,
      "type": "SCALAR"
    },
    {
      "bufferView": 2,
      "byteOffset": 19584,
      "componentType": 5126,
      "count": 4063,
      "max": [
        0.014883833937346935,
        0.014999217353761196,
        0.1790151745080948
      ],
      "min": [
        -0.014883813448250294,
        -0.17033307254314423,
        -0.07282840460538864
      ],
      "type": "VEC3"
    },
    {
      "bufferView": 2,
      "byteOffset": 68340,
      "componentType": 5126,
      "count": 4063,
      "max": [
        0.9999998807907104,
        0.9999499320983887,
        1.0
      ],
      "min": [
        -0.9999998807907104,
        -0.9999779462814331,
        -0.9999985694885254
      ],
      "type": "VEC3"
    },
    {
      "bufferView": 3,
      "byteOffset": 13056,
      "componentType": 5126,
      "count": 4063,
      "max": [
        1.0,
        1.0,
        0.9999606609344482,
        1.0
      ],
      "min": [
        -1.0,
        -1.0,
        -0.9999929666519165,
        1.0
      ],
      "type": "VEC4"
    },
    {
      "bufferView": 1,
      "byteOffset": 32640,
      "componentType": 5126,
      "count": 4063,
      "max": [
        0.5329434275627136,
        0.9989999532699585
      ],
      "min": [
        0.0009999871253967285,
        0.0009999871253967285
      ],
      "type": "VEC2"
    },
    {
      "bufferView": 1,
      "byteOffset": 65144,
      "componentType": 5126,
      "count": 4063,
      "max": [
        0.5329434275627136,
        0.9989999532699585
      ],
      "min": [
        0.0009999871253967285,
        0.0009999871253967285
      ],
      "type": "VEC2"
    },
    {
      "bufferView": 1,
      "byteOffset": 97648,
      "componentType": 5126,
      "count": 4063,
      "max": [
        0.5329434275627136,
        0.9989999532699585
      ],
      "min": [
        0.0009999871253967285,
        0.0009999871253967285
      ],
      "type": "VEC2"
    },
    {
      "bufferView": 1,
      "byteOffset": 130152,
      "componentType": 5126,
      "count": 4063,
      "max": [
        0.5329434275627136,
        0.9989999532699585
      ],
      "min": [
        0.0009999871253967285,
        0.0009999871253967285
      ],
      "type": "VEC2"
    },
    {
      "bufferView": 1,
      "byteOffset": 162656,
      "componentType": 5126,
      "count": 4063,
      "max": [
        0.5329434275627136,
        0.9989999532699585
      ],
      "min": [
        0.0009999871253967285,
        0.0009999871253967285
      ],
      "type": "VEC2"
    },
    {
      "bufferView": 0,
      "byteOffset": 9600,
      "componentType": 5125,
      "count": 22752,
      "type": "SCALAR"
    }
  ],
  "asset": {
    "extras": {
      "author": "Erik Bänder (https://sketchfab.com/erikbaender)",
      "license": "CC-BY-4.0 (http://creativecommons.org/licenses/by/4.0/)",
      "source": "https://sketchfab.com/3d-models/swing-ring-ef0424747b9840d9bd7776f7e4c58a44",
      "title": "Swing Ring"
    },
    "generator": "Sketchfab-17.15.0",
    "version": "2.0"
  },
  "bufferViews": [
    {
      "buffer": 0,
      "byteLength": 100608,
      "name": "floatBufferViews",
      "target": 34963
    },
    {
      "buffer": 0,
      "byteLength": 195160,
      "byteOffset": 100608,
      "byteStride": 8,
      "name": "floatBufferViews",
      "target": 34962
    },
    {
      "buffer": 0,
      "byteLength": 117096,
      "byteOffset": 295768,
      "byteStride": 12,
      "name": "floatBufferViews",
      "target": 34962
    },
    {
      "buffer": 0,
      "byteLength": 78064,
      "byteOffset": 412864,
      "byteStride": 16,
      "name": "floatBufferViews",
      "target": 34962
    }
  ],
  "buffers": [
    {
      "byteLength": 490928,
      "uri": "scene.bin"
    }
  ],
  "extensionsUsed": [
    "KHR_materials_specular"
  ],
  "images": [
    {
      "uri": "textures/SwingRing_baseColor.png"
    },
    {
      "uri": "textures/SwingRing_metallicRoughness.png"
    },
    {
      "uri": "textures/SwingRing_normal.png"
    },
    {
      "uri": "textures/SwingRing_specularf0.png"
    }
  ],
  "materials": [
    {
      "extensions": {
        "KHR_materials_specular": {
          "specularColorFactor": [
            1.0,
            1.0,
            1.0
          ],
          "specularFactor": 1.0,
          "specularTexture": {
            "index": 3
          }
        }
      },
      "name": "SwingRing",
      "normalTexture": {
        "index": 2
      },
      "occlusionTexture": {
        "index": 1
      },
      "pbrMetallicRoughness": {
        "baseColorTexture": {
          "index": 0
        },
        "metallicRoughnessTexture": {
          "index": 1
        }
      }
    }
  ],
  "meshes": [
    {
      "name": "Object_0",
      "primitives": [
        {
          "attributes": {
            "NORMAL": 1,
            "POSITION": 0,
            "TANGENT": 2,
            "TEXCOORD_0": 3,
            "TEXCOORD_1": 4,
            "TEXCOORD_2": 5,
            "TEXCOORD_3": 6,
            "TEXCOORD_4": 7
          },
          "indices": 8,
          "material": 0,
          "mode": 4
        }
      ]
    },
    {
      "name": "Object_1",
      "primitives": [
        {
          "attributes": {
            "NORMAL": 10,
            "POSITION": 9,
            "TANGENT": 11,
            "TEXCOORD_0": 12,
            "TEXCOORD_1": 13,
            "TEXCOORD_2": 14,
            "TEXCOORD_3": 15,
            "TEXCOORD_4": 16
          },
          "indices": 17,
          "material": 0,
          "mode": 4
        }
      ]
    }
  ],
  "nodes": [
    {
      "children": [
        1
      ],
      "matrix": [
        1.0,
        0.0,
        0.0,
        0.0,
        0.0,
        2.220446049250313e-16,
        -1.0,
        0.0,
        0.0,
        1.0,
        2.220446049250313e-16,
        0.0,
        0.0,
        0.0,
        0.0,
        1.0
      ],
      "name": "Sketchfab_model"
    },
    {
      "children": [
        2
      ],
      "name": "root"
    },
    {
      "children": [
        3
      ],
      "matrix": [
        1.0,
        0.0,
        0.0,
        0.0,
        0.0,
        2.220446049250313e-16,
        1.0,
        0.0,
        0.0,
        -1.0,
        2.220446049250313e-16,
        0.0,
        0.0,
        0.0,
        0.0,
        1.0
      ],
      "name": "GLTF_SceneRootNode"
    },
    {
      "children": [
        4
      ],
      "name": "SwingRing_0"
    },
    {
      "children": [
        5
      ],
      "name": "Model_5"
    },
    {
      "children": [
        6
      ],
      "matrix": [
        1.0374335159423742,
        0.2384550975732847,
        0.2772560529417656,
        0.0,
        -0.33247435220374333,
        0.2677147991629448,
        1.0137996073622901,
        0.0,
        0.15229102921128718,
        -1.0399365390265636,
        0.32456045611150397,
        0.0,
        0.0,
        0.0,
        0.0,
        1.0
      ],
      "name": "Bounds_6"
    },
    {
      "children": [
        7,
        9
      ],
      "name": "SwingRing_7"
    },
    {
      "children": [
        8
      ],
      "matrix": [
        1.0,
        0.0,
        0.0,
        0.0,
        0.0,
        1.0,
        0.0,
        0.0,
        0.0,
        0.0,
        1.0,
        0.0,
        2.023570422338139e-09,
        0.07474952191114426,
        -0.0001869599800556898,
        1.0
      ],
      "name": "Handle_low_8"
    },
    {
      "mesh": 0,
      "name": "Object_8"
    },
    {
      "children": [
        10
      ],
      "matrix": [
        1.0,
        0.0,
        0.0,
        0.0,
        0.0,
        1.0,
        0.0,
        0.0,
        0.0,
        0.0,
        1.0,
        0.0,
        -1.358286816355303e-10,
        0.07474952191114426,
        -0.054514527320861816,
        1.0
      ],
      "name": "Hose_low_9"
    },
    {
      "mesh": 1,
      "name": "Object_10"
    }
  ],
  "samplers": [
    {
      "magFilter": 9729,
      "minFilter": 9987,
      "wrapS": 10497,
      "wrapT": 10497
    }
  ],
  "scene": 0,
  "scenes": [
    {
      "name": "Sketchfab_Scene",
      "nodes": [
        0
      ]
    }
  ],
  "textures": [
    {
      "sampler": 0,
      "source": 0
    },
    {
      "sampler": 0,
      "source": 1
    },
    {
      "sampler": 0,
      "source": 2
    },
    {
      "sampler": 0,
      "source": 3
    }
  ]
}
